<svg width="20" height="20" viewBox="0 0 20 20" fill="none" xmlns="http://www.w3.org/2000/svg">
<circle cx="10" cy="10" r="10" fill="#0B8749"/>
<path d="M13.3333 6.25H6.66667C5.75 6.25 5 7 5 7.91667V12.0833C5 13 5.75 13.75 6.66667 13.75H13.3333C14.25 13.75 15 13 15 12.0833V7.91667C15 7 14.25 6.25 13.3333 6.25ZM14 8.66667L10.7083 10.875C10.5 11 10.25 11.0833 10 11.0833C9.75 11.0833 9.5 11 9.29167 10.875L6 8.66667C5.83333 8.54167 5.79167 8.29167 5.91667 8.08333C6.04167 7.91667 6.29167 7.875 6.5 8L9.79167 10.2083C9.91667 10.2917 10.125 10.2917 10.25 10.2083L13.5417 8C13.75 7.875 14 7.91667 14.125 8.125C14.2083 8.29167 14.1667 8.54167 14 8.66667Z" fill="white"/>
</svg>
